<svg width="220" height="220" viewBox="0 0 200 200" xmlns="http://www.w3.org/2000/svg">

  <!-- Outer Hex -->
  <polygon
    points="100,10 180,55 180,145 100,190 20,145 20,55"
    fill="#214A7B"/>

  <!-- Top Chevron -->
  <polygon
    points="35,60 100,30 165,60 130,75 100,65 75,75"
    fill="#E6E6E6"
    stroke="#193355"
    stroke-width="4"
    stroke-linejoin="round"/>

  <!-- Four vertical panels -->
  <g fill="#E6E6E6" stroke="#193355" stroke-width="4">

    <polygon points="35,70 60,80 60,155 35,145"/>
    <polygon points="67,82 75,85 95,77 95,170 67,158"/>
    <polygon points="165,70 140,80 140,155 165,145"/>
    <polygon points="133,82 125,85 105,77 105,170 133,158"/>

  </g>

</svg>